<svg xmlns="http://www.w3.org/2000/svg" version="1.1" xmlns:xlink="http://www.w3.org/1999/xlink" xmlns:svgjs="http://svgjs.dev/svgjs" width="1000" height="1000"><style>
    #light-icon {
      display: inline;
    }
    #dark-icon {
      display: none;
    }

    @media (prefers-color-scheme: dark) {
      #light-icon {
        display: none;
      }
      #dark-icon {
        display: inline;
      }
    }
  </style><g id="light-icon"><svg xmlns="http://www.w3.org/2000/svg" version="1.1" xmlns:xlink="http://www.w3.org/1999/xlink" xmlns:svgjs="http://svgjs.dev/svgjs" width="1000" height="1000"><g clip-path="url(#SvgjsClipPath1112)"><rect width="1000" height="1000" fill="#ffffff"></rect><g transform="matrix(17.857142857142858,0,0,17.857142857142858,0,0)"><svg xmlns="http://www.w3.org/2000/svg" version="1.1" xmlns:xlink="http://www.w3.org/1999/xlink" xmlns:svgjs="http://svgjs.dev/svgjs" width="56" height="56"><svg version="1.1" xmlns="http://www.w3.org/2000/svg" xmlns:xlink="http://www.w3.org/1999/xlink" width="56" height="56"><defs><clipPath id="IcyCBGaPGKWB"><path fill="none" stroke="none" d=" M 0 0 L 56 0 L 56 56 L 0 56 L 0 0 Z"></path></clipPath><clipPath id="SvgjsClipPath1112"><rect width="1000" height="1000" x="0" y="0" rx="250" ry="250"></rect></clipPath></defs><g transform="scale(1,1)" clip-path="url(#IcyCBGaPGKWB)"><g transform="translate(-70,-258)"><path fill="rgb(101,87,210)" stroke="none" paint-order="stroke fill markers" fill-rule="evenodd" d=" M 450 115 L 472 115 C 473.1045694996616 115 474 115.8954305003384 474 117 L 474 139 C 474 140.10456949966158 473.1045694996616 141 472 141 L 450 141 C 448.8954305003384 141 448 140.10456949966158 448 139 L 448 117 C 448 115.8954305003384 448.8954305003384 115 450 115 Z" fill-opacity="1"></path><g transform="translate(448,115)"><path fill="none" stroke="rgb(255,255,255)" paint-order="fill stroke markers" d=" M 4.44 13.76 L 9.75 19.07 L 21.99 6.83" stroke-opacity="1" stroke-linecap="square" stroke-miterlimit="10" stroke-width="2.6"></path><g transform="translate(-448,-115)"><text fill="rgb(0,0,0)" stroke="none" font-family="geogebra-sans-serif, sans-serif" font-size="32px" font-style="normal" font-weight="normal" text-decoration="normal" x="483" y="140" text-anchor="start" dominant-baseline="alphabetic" fill-opacity="1" svgjs:data="{&quot;leading&quot;:&quot;1.3&quot;}">Serif</text><g transform="scale(35,35)"><g transform="translate(2.2857142857142856,8.46042857142857)"><path fill="rgb(0,0,0)" stroke="none" paint-order="stroke fill markers" d=" M 0.466 -0.21 L 0.656 -0.664 Q 0.664 -0.682 0.672 -0.684 L 0.673 -0.684 L 0.673 -0.684 Q 0.678 -0.685 0.6930000000000001 -0.685 L 0.886 -0.685 Q 0.913 -0.685 0.918 -0.675 L 0.918 -0.674 Q 0.919 -0.671 0.919 -0.667 Q 0.919 -0.652 0.9 -0.65 Q 0.834 -0.636 0.8320000000000001 -0.579 L 0.8320000000000001 -0.106 Q 0.8320000000000001 -0.062 0.863 -0.046 L 0.864 -0.046 Q 0.882 -0.037 0.909 -0.035 Q 0.922 -0.033 0.925 -0.018000000000000002 Q 0.916 -0.001 0.892 0 L 0.625 0 Q 0.595 0 0.592 -0.012 Q 0.591 -0.015 0.591 -0.018000000000000002 Q 0.591 -0.033 0.61 -0.035 Q 0.676 -0.049 0.678 -0.106 L 0.678 -0.604 L 0.677 -0.605 L 0.432 -0.02 Q 0.424 -0.002 0.41200000000000003 0 Q 0.4 0 0.391 -0.021 L 0.147 -0.605 L 0.146 -0.604 L 0.146 -0.106 Q 0.146 -0.062 0.177 -0.046 L 0.178 -0.046 Q 0.196 -0.037 0.223 -0.035 Q 0.23600000000000002 -0.033 0.23900000000000002 -0.018000000000000002 Q 0.231 -0.001 0.20600000000000002 0 L 0.051000000000000004 0 Q 0.021 0 0.018000000000000002 -0.012 Q 0.017 -0.015 0.017 -0.018000000000000002 Q 0.017 -0.033 0.036000000000000004 -0.035 Q 0.10200000000000001 -0.049 0.10400000000000001 -0.106 L 0.10400000000000001 -0.64 Q 0.076 -0.65 0.043000000000000003 -0.65 Q 0.02 -0.65 0.02 -0.667 Q 0.028 -0.684 0.053 -0.685 L 0.23900000000000002 -0.685 Q 0.264 -0.685 0.269 -0.678 Q 0.271 -0.675 0.275 -0.665 L 0.466 -0.21 M 0.436 -0.192 L 0.243 -0.65 L 0.156 -0.65 Q 0.17200000000000001 -0.636 0.183 -0.608 L 0.41100000000000003 -0.064 L 0.41300000000000003 -0.064 L 0.457 -0.17 Q 0.445 -0.17400000000000002 0.44 -0.184 Q 0.438 -0.187 0.436 -0.192 M 0.134 -0.035 L 0.134 -0.035 L 0.125 -0.046 Q 0.124 -0.045 0.123 -0.043000000000000003 Q 0.121 -0.041 0.117 -0.035 L 0.134 -0.035 M 0.713 -0.65 L 0.713 -0.10400000000000001 Q 0.713 -0.06 0.6910000000000001 -0.035 L 0.8200000000000001 -0.035 Q 0.797 -0.06 0.797 -0.10400000000000001 L 0.797 -0.581 Q 0.797 -0.625 0.8190000000000001 -0.65 L 0.713 -0.65 Z"></path></g></g><path fill="rgb(255,255,255)" stroke="none" paint-order="stroke fill markers" fill-rule="evenodd" d=" M 37.5 109 L 166.5 109 C 168.43299662440776 109 170 110.56700337559222 170 112.5 L 170 140.5 C 170 142.43299662440776 168.43299662440776 144 166.5 144 L 37.5 144 C 35.56700337559222 144 34 142.43299662440776 34 140.5 L 34 112.5 C 34 110.56700337559222 35.56700337559222 109 37.5 109 Z" fill-opacity="1"></path><path fill="none" stroke="rgb(179,179,179)" paint-order="fill stroke markers" d=" M 37.5 109 L 166.5 109 C 168.43299662440776 109 170 110.56700337559222 170 112.5 L 170 140.5 C 170 142.43299662440776 168.43299662440776 144 166.5 144 L 37.5 144 C 35.56700337559222 144 34 142.43299662440776 34 140.5 L 34 112.5 C 34 110.56700337559222 35.56700337559222 109 37.5 109 Z" stroke-opacity="1" stroke-linecap="round" stroke-linejoin="round" stroke-miterlimit="10"></path><text fill="rgb(0,0,0)" stroke="none" font-family="geogebra-sans-serif, sans-serif" font-size="24px" font-style="normal" font-weight="normal" text-decoration="normal" x="44" y="136" text-anchor="start" dominant-baseline="alphabetic" fill-opacity="1" svgjs:data="{&quot;leading&quot;:&quot;1.3&quot;}">Show SVG</text><path fill="rgb(255,255,255)" stroke="none" paint-order="stroke fill markers" fill-rule="evenodd" d=" M 204.5 106 L 380.5 106 C 382.4329966244078 106 384 107.56700337559222 384 109.5 L 384 137.5 C 384 139.43299662440776 382.4329966244078 141 380.5 141 L 204.5 141 C 202.56700337559224 141 201 139.43299662440776 201 137.5 L 201 109.5 C 201 107.56700337559222 202.56700337559224 106 204.5 106 Z" fill-opacity="1"></path><path fill="none" stroke="rgb(179,179,179)" paint-order="fill stroke markers" d=" M 204.5 106 L 380.5 106 C 382.4329966244078 106 384 107.56700337559222 384 109.5 L 384 137.5 C 384 139.43299662440776 382.4329966244078 141 380.5 141 L 204.5 141 C 202.56700337559224 141 201 139.43299662440776 201 137.5 L 201 109.5 C 201 107.56700337559222 202.56700337559224 106 204.5 106 Z" stroke-opacity="1" stroke-linecap="round" stroke-linejoin="round" stroke-miterlimit="10"></path><text fill="rgb(0,0,0)" stroke="none" font-family="geogebra-sans-serif, sans-serif" font-size="24px" font-style="normal" font-weight="normal" text-decoration="normal" x="211" y="133" text-anchor="start" dominant-baseline="alphabetic" fill-opacity="1" svgjs:data="{&quot;leading&quot;:&quot;1.3&quot;}">Download SVG</text><path fill="rgb(255,255,255)" stroke="none" paint-order="stroke fill markers" fill-rule="evenodd" d=" M 212 30 L 722 30 C 724.2091389993232 30 726 31.790861000676827 726 34 L 726 75 C 726 77.20913899932317 724.2091389993232 79 722 79 L 212 79 C 209.7908610006768 79 208 77.20913899932317 208 75 L 208 34 C 208 31.790861000676827 209.7908610006768 30 212 30 Z" fill-opacity="1"></path><path fill="none" stroke="rgb(180,179,186)" paint-order="fill stroke markers" d=" M 212 30 L 722 30 C 724.2091389993232 30 726 31.790861000676827 726 34 L 726 75 C 726 77.20913899932317 724.2091389993232 79 722 79 L 212 79 C 209.7908610006768 79 208 77.20913899932317 208 75 L 208 34 C 208 31.790861000676827 209.7908610006768 30 212 30 Z" stroke-opacity="1" stroke-linecap="round" stroke-linejoin="round" stroke-miterlimit="10"></path><text fill="rgb(0,0,0)" stroke="none" font-family="geogebra-sans-serif, sans-serif" font-size="32px" font-style="normal" font-weight="normal" text-decoration="normal" x="210" y="66" text-anchor="start" dominant-baseline="alphabetic" fill-opacity="1" svgjs:data="{&quot;leading&quot;:&quot;1.3&quot;}">\mathbb{M}</text><text fill="rgb(0,0,0)" stroke="none" font-family="geogebra-sans-serif, sans-serif" font-size="32px" font-style="normal" font-weight="normal" text-decoration="normal" x="30" y="66" text-anchor="start" dominant-baseline="alphabetic" fill-opacity="1" svgjs:data="{&quot;leading&quot;:&quot;1.3&quot;}">Enter LaTeX</text></g></g></g></g></svg></svg></g></g></svg></g><g id="dark-icon"><svg xmlns="http://www.w3.org/2000/svg" version="1.1" xmlns:xlink="http://www.w3.org/1999/xlink" xmlns:svgjs="http://svgjs.dev/svgjs" width="1000" height="1000"><g><g transform="matrix(17.857142857142858,0,0,17.857142857142858,0,0)" style="filter: invert(100%)"><svg xmlns="http://www.w3.org/2000/svg" version="1.1" xmlns:xlink="http://www.w3.org/1999/xlink" xmlns:svgjs="http://svgjs.dev/svgjs" width="56" height="56"><svg version="1.1" xmlns="http://www.w3.org/2000/svg" xmlns:xlink="http://www.w3.org/1999/xlink" width="56" height="56"><defs><clipPath id="IcyCBGaPGKWB"><path fill="none" stroke="none" d=" M 0 0 L 56 0 L 56 56 L 0 56 L 0 0 Z"></path></clipPath></defs><g transform="scale(1,1)" clip-path="url(#IcyCBGaPGKWB)"><g transform="translate(-70,-258)"><path fill="rgb(101,87,210)" stroke="none" paint-order="stroke fill markers" fill-rule="evenodd" d=" M 450 115 L 472 115 C 473.1045694996616 115 474 115.8954305003384 474 117 L 474 139 C 474 140.10456949966158 473.1045694996616 141 472 141 L 450 141 C 448.8954305003384 141 448 140.10456949966158 448 139 L 448 117 C 448 115.8954305003384 448.8954305003384 115 450 115 Z" fill-opacity="1"></path><g transform="translate(448,115)"><path fill="none" stroke="rgb(255,255,255)" paint-order="fill stroke markers" d=" M 4.44 13.76 L 9.75 19.07 L 21.99 6.83" stroke-opacity="1" stroke-linecap="square" stroke-miterlimit="10" stroke-width="2.6"></path><g transform="translate(-448,-115)"><text fill="rgb(0,0,0)" stroke="none" font-family="geogebra-sans-serif, sans-serif" font-size="32px" font-style="normal" font-weight="normal" text-decoration="normal" x="483" y="140" text-anchor="start" dominant-baseline="alphabetic" fill-opacity="1" svgjs:data="{&quot;leading&quot;:&quot;1.3&quot;}">Serif</text><g transform="scale(35,35)"><g transform="translate(2.2857142857142856,8.46042857142857)"><path fill="rgb(0,0,0)" stroke="none" paint-order="stroke fill markers" d=" M 0.466 -0.21 L 0.656 -0.664 Q 0.664 -0.682 0.672 -0.684 L 0.673 -0.684 L 0.673 -0.684 Q 0.678 -0.685 0.6930000000000001 -0.685 L 0.886 -0.685 Q 0.913 -0.685 0.918 -0.675 L 0.918 -0.674 Q 0.919 -0.671 0.919 -0.667 Q 0.919 -0.652 0.9 -0.65 Q 0.834 -0.636 0.8320000000000001 -0.579 L 0.8320000000000001 -0.106 Q 0.8320000000000001 -0.062 0.863 -0.046 L 0.864 -0.046 Q 0.882 -0.037 0.909 -0.035 Q 0.922 -0.033 0.925 -0.018000000000000002 Q 0.916 -0.001 0.892 0 L 0.625 0 Q 0.595 0 0.592 -0.012 Q 0.591 -0.015 0.591 -0.018000000000000002 Q 0.591 -0.033 0.61 -0.035 Q 0.676 -0.049 0.678 -0.106 L 0.678 -0.604 L 0.677 -0.605 L 0.432 -0.02 Q 0.424 -0.002 0.41200000000000003 0 Q 0.4 0 0.391 -0.021 L 0.147 -0.605 L 0.146 -0.604 L 0.146 -0.106 Q 0.146 -0.062 0.177 -0.046 L 0.178 -0.046 Q 0.196 -0.037 0.223 -0.035 Q 0.23600000000000002 -0.033 0.23900000000000002 -0.018000000000000002 Q 0.231 -0.001 0.20600000000000002 0 L 0.051000000000000004 0 Q 0.021 0 0.018000000000000002 -0.012 Q 0.017 -0.015 0.017 -0.018000000000000002 Q 0.017 -0.033 0.036000000000000004 -0.035 Q 0.10200000000000001 -0.049 0.10400000000000001 -0.106 L 0.10400000000000001 -0.64 Q 0.076 -0.65 0.043000000000000003 -0.65 Q 0.02 -0.65 0.02 -0.667 Q 0.028 -0.684 0.053 -0.685 L 0.23900000000000002 -0.685 Q 0.264 -0.685 0.269 -0.678 Q 0.271 -0.675 0.275 -0.665 L 0.466 -0.21 M 0.436 -0.192 L 0.243 -0.65 L 0.156 -0.65 Q 0.17200000000000001 -0.636 0.183 -0.608 L 0.41100000000000003 -0.064 L 0.41300000000000003 -0.064 L 0.457 -0.17 Q 0.445 -0.17400000000000002 0.44 -0.184 Q 0.438 -0.187 0.436 -0.192 M 0.134 -0.035 L 0.134 -0.035 L 0.125 -0.046 Q 0.124 -0.045 0.123 -0.043000000000000003 Q 0.121 -0.041 0.117 -0.035 L 0.134 -0.035 M 0.713 -0.65 L 0.713 -0.10400000000000001 Q 0.713 -0.06 0.6910000000000001 -0.035 L 0.8200000000000001 -0.035 Q 0.797 -0.06 0.797 -0.10400000000000001 L 0.797 -0.581 Q 0.797 -0.625 0.8190000000000001 -0.65 L 0.713 -0.65 Z"></path></g></g><path fill="rgb(255,255,255)" stroke="none" paint-order="stroke fill markers" fill-rule="evenodd" d=" M 37.5 109 L 166.5 109 C 168.43299662440776 109 170 110.56700337559222 170 112.5 L 170 140.5 C 170 142.43299662440776 168.43299662440776 144 166.5 144 L 37.5 144 C 35.56700337559222 144 34 142.43299662440776 34 140.5 L 34 112.5 C 34 110.56700337559222 35.56700337559222 109 37.5 109 Z" fill-opacity="1"></path><path fill="none" stroke="rgb(179,179,179)" paint-order="fill stroke markers" d=" M 37.5 109 L 166.5 109 C 168.43299662440776 109 170 110.56700337559222 170 112.5 L 170 140.5 C 170 142.43299662440776 168.43299662440776 144 166.5 144 L 37.5 144 C 35.56700337559222 144 34 142.43299662440776 34 140.5 L 34 112.5 C 34 110.56700337559222 35.56700337559222 109 37.5 109 Z" stroke-opacity="1" stroke-linecap="round" stroke-linejoin="round" stroke-miterlimit="10"></path><text fill="rgb(0,0,0)" stroke="none" font-family="geogebra-sans-serif, sans-serif" font-size="24px" font-style="normal" font-weight="normal" text-decoration="normal" x="44" y="136" text-anchor="start" dominant-baseline="alphabetic" fill-opacity="1" svgjs:data="{&quot;leading&quot;:&quot;1.3&quot;}">Show SVG</text><path fill="rgb(255,255,255)" stroke="none" paint-order="stroke fill markers" fill-rule="evenodd" d=" M 204.5 106 L 380.5 106 C 382.4329966244078 106 384 107.56700337559222 384 109.5 L 384 137.5 C 384 139.43299662440776 382.4329966244078 141 380.5 141 L 204.5 141 C 202.56700337559224 141 201 139.43299662440776 201 137.5 L 201 109.5 C 201 107.56700337559222 202.56700337559224 106 204.5 106 Z" fill-opacity="1"></path><path fill="none" stroke="rgb(179,179,179)" paint-order="fill stroke markers" d=" M 204.5 106 L 380.5 106 C 382.4329966244078 106 384 107.56700337559222 384 109.5 L 384 137.5 C 384 139.43299662440776 382.4329966244078 141 380.5 141 L 204.5 141 C 202.56700337559224 141 201 139.43299662440776 201 137.5 L 201 109.5 C 201 107.56700337559222 202.56700337559224 106 204.5 106 Z" stroke-opacity="1" stroke-linecap="round" stroke-linejoin="round" stroke-miterlimit="10"></path><text fill="rgb(0,0,0)" stroke="none" font-family="geogebra-sans-serif, sans-serif" font-size="24px" font-style="normal" font-weight="normal" text-decoration="normal" x="211" y="133" text-anchor="start" dominant-baseline="alphabetic" fill-opacity="1" svgjs:data="{&quot;leading&quot;:&quot;1.3&quot;}">Download SVG</text><path fill="rgb(255,255,255)" stroke="none" paint-order="stroke fill markers" fill-rule="evenodd" d=" M 212 30 L 722 30 C 724.2091389993232 30 726 31.790861000676827 726 34 L 726 75 C 726 77.20913899932317 724.2091389993232 79 722 79 L 212 79 C 209.7908610006768 79 208 77.20913899932317 208 75 L 208 34 C 208 31.790861000676827 209.7908610006768 30 212 30 Z" fill-opacity="1"></path><path fill="none" stroke="rgb(180,179,186)" paint-order="fill stroke markers" d=" M 212 30 L 722 30 C 724.2091389993232 30 726 31.790861000676827 726 34 L 726 75 C 726 77.20913899932317 724.2091389993232 79 722 79 L 212 79 C 209.7908610006768 79 208 77.20913899932317 208 75 L 208 34 C 208 31.790861000676827 209.7908610006768 30 212 30 Z" stroke-opacity="1" stroke-linecap="round" stroke-linejoin="round" stroke-miterlimit="10"></path><text fill="rgb(0,0,0)" stroke="none" font-family="geogebra-sans-serif, sans-serif" font-size="32px" font-style="normal" font-weight="normal" text-decoration="normal" x="210" y="66" text-anchor="start" dominant-baseline="alphabetic" fill-opacity="1" svgjs:data="{&quot;leading&quot;:&quot;1.3&quot;}">\mathbb{M}</text><text fill="rgb(0,0,0)" stroke="none" font-family="geogebra-sans-serif, sans-serif" font-size="32px" font-style="normal" font-weight="normal" text-decoration="normal" x="30" y="66" text-anchor="start" dominant-baseline="alphabetic" fill-opacity="1" svgjs:data="{&quot;leading&quot;:&quot;1.3&quot;}">Enter LaTeX</text></g></g></g></g></svg></svg></g></g></svg></g></svg>